<svg xmlns="http://www.w3.org/2000/svg" xml:space="preserve" fill-rule="evenodd" stroke-linejoin="round" clip-rule="evenodd" viewBox="0 0 464 216"><path fill="#416127" fill-rule="nonzero" stroke="#fff" stroke-width="2.48" d="M67.23 31.44v15.34l13.01 7.67v15.1l13.24 7.67V46.78L67.22 31.44zm210.51 0v7.67h13.24zm-158 15.34v30.44l26.49 15.1V61.88zm118.5 7.67v15.1l39.5 22.77v15.34l26.49 15.1V92.32zm-237 15.1v30.44l65.99 38.11v-30.44zm237 15.32v22.78h13.24V92.31zm-52.51 15.12v30.44l13.01-7.67 13.24 7.67v15.1l13.24 7.67v-30.44l-39.5-22.77zm158 15.33v15.1l13.24 7.67v15.1l13.01-7.67v-15.1l-26.26-15.1zm-223.99 22.77v30.44l39.5 22.77v-30.44zm263.49 0v30.44l26.26 15.1v-30.44zm-92.24 22.77v30.44l39.5 22.77v-30.44z"/><path fill="#30471e" fill-rule="nonzero" stroke="#fff" stroke-width="2.48" d="M93.49 46.78v30.44h26.26V46.78zm210.74 30.44 13.24 7.67v22.77h13.01V77.22h-26.26zm-92.24 7.66v15.1l13.24 7.67h13.01V84.88h-26.26zm13.24 37.88v30.44h26.26v-30.44zm-65.99 38.1v30.44h26.49v-30.44zm171.25 22.78v30.44h26.49v-30.44z"/><path fill="#212d19" fill-rule="nonzero" stroke="#fff" stroke-width="2.48" d="m172.49 46.78-26.26 15.1v30.44l26.26-15.1zm184.49 15.1-26.49 15.34v30.44l26.49-15.34zM80.24 69.55l-13.01 7.67 13.01 7.67zm237.24 15.33-13.24 7.44v30.44l13.24-7.44zM93.49 92.32l-26.26 15.34v30.44l26.26-15.34zm184.25 15.33-26.26 15.1v30.44l26.26-15.1zm-92.01 7.67-26.49 15.1 13.24 7.67 13.24-7.67v-15.1zm197.5 7.44-13.24 7.67v15.1l13.24 7.67zm79 0-52.74 30.44v30.44l52.74-30.44zm-105.25 15.33-26.49 15.1 13.24 7.67 13.24-7.67v-15.1zm-144.99 7.44-26.26 15.34v30.44l26.26-15.34zm171.24 23-26.26 15.1v30.44l26.26-15.1z"/><path fill="none" d="m119.74 1.24-13.01 7.44v15.34H80.24l-13.01 7.44L93.49 46.8h26.26l26.49 15.1 26.26-15.1-26.26-15.34v-15.1l-26.49-15.1zm171.25 22.77-13.24 7.44 13.24 7.67h-26.26l-26.49 15.34 65.99 37.87 13.24-7.44-13.24-7.67h26.26l26.49-15.34zM40.74 46.78 1.24 69.55l65.99 38.11 26.26-15.34-26.26-15.1 13.01-7.67v-15.1l-13.01-7.67zm171.25 22.77-26.26 15.34v15.1l39.5 22.77h26.26l26.26-15.1V92.32l-39.5-22.77zm0 15.33h26.26l13.24 7.44v15.34h-26.26l-13.24-7.67zm184.49 0-52.74 30.44 26.26 15.1 13.24-7.67v15.34l26.26 15.1 52.74-30.44-26.26-15.1-13.24 7.67V99.98zm-250.25 22.77-26.49 15.1v15.34l39.5 22.77h26.49l26.26-15.34v-15.1l-13.24-7.67-26.26 15.34-13.24-7.67 26.49-15.1-13.24-7.67zm171.25 22.78-26.49 15.1v15.34l39.5 22.77h26.49l26.26-15.1V153.2L370 145.53l-26.26 15.34-13.24-7.67 26.49-15.1-13.24-7.67z"/><path fill="#2f441e" fill-rule="nonzero" stroke="#fff" stroke-width="2.48" d="m119.74 1.24-13.01 7.44v15.34H80.24l-13.01 7.44L93.49 46.8h26.26l26.49 15.1 26.26-15.1-26.26-15.34v-15.1l-26.49-15.1zm171.25 22.77-13.24 7.44 13.24 7.67h-26.26l-26.49 15.34 65.99 37.87 13.24-7.44-13.24-7.67h26.26l26.49-15.34zM40.74 46.78 1.24 69.55l65.99 38.11 26.26-15.34-26.26-15.1 13.01-7.67v-15.1l-13.01-7.67zm171.25 22.77-26.26 15.34v15.1l39.5 22.77h26.26l26.26-15.1V92.32l-39.5-22.77zm0 15.33h26.26l13.24 7.44v15.34h-26.26l-13.24-7.67zm184.49 0-52.74 30.44 26.26 15.1 13.24-7.67v15.34l26.26 15.1 52.74-30.44-26.26-15.1-13.24 7.67V99.98zm-250.25 22.77-26.49 15.1v15.34l39.5 22.77h26.49l26.26-15.34v-15.1l-13.24-7.67-26.26 15.34-13.24-7.67 26.49-15.1-13.24-7.67zm171.25 22.78-26.49 15.1v15.34l39.5 22.77h26.49l26.26-15.1V153.2L370 145.53l-26.26 15.34-13.24-7.67 26.49-15.1-13.24-7.67z"/></svg>