<svg xmlns="http://www.w3.org/2000/svg" viewBox="0 0 3300 3900">
    <defs>
        <filter id="blur"
                x="0"
                y="0"
                width="100%"
                height="100%"
                filterUnits="userSpaceOnUse"
                primitiveUnits="userSpaceOnUse"
                color-interpolation-filters="sRGB">
            <feGaussianBlur stdDeviation="128" />
        </filter>
    </defs>

    <g filter="url(#blur)">
        <path fill="#00b7df" d="M1936 3178c-191 186-630-169-826-369-8-51 8-158 134-181 158-28 173-262 65-580s-226-950 4-1048c230-97 374 140 597 484s-35 388 154 735a791 791 0 0 1-128 959z" />
        <path fill="#39f4c5" d="M1402 284c116-323 422-37 653-12-47 123-116 403-20 536 121 166 372 324 455 627 83 302-337 582-456 540-120-42-309-197-129-178 179 18 169-344-45-720-214-377-574-470-458-793ZM1032 646c160 18 340 296 510 597-11 36-60 110-170 124-137 17-259 238-262 565-3 326-44 372-315 262s-474-334-417-360c57-25 230-433 337-629 108-197 157-577 317-559z" />
    </g>
</svg>
