<svg xmlns="http://www.w3.org/2000/svg">
    <style>
        .a,
        .b,
        .c,
        .d,
        .e {
        transform-box: fill-box;
        transform-origin: center;
        }

        .a { transform: matrix(12,-5,5,12,940,490); }
        .b { transform: matrix(11,5,-5,11,350,200); }
        .c { transform: matrix(12,-4.5,4.5,12,560,360); }
        .e { transform: matrix(12,-5,5,12,940,1700); }
        .d { transform: matrix(12,-5,5,12,940,2800); }

    </style>
    <defs>
        <filter id="blur"
                x="0"
                y="0"
                width="100%"
                height="100%"
                filterUnits="userSpaceOnUse"
                primitiveUnits="userSpaceOnUse"
                color-interpolation-filters="sRGB">
            <feGaussianBlur stdDeviation="128" />
        </filter>

        <pattern id="grid" width="100" height="58" y="5%" patternUnits="userSpaceOnUse">
            <path stroke-linecap="square" stroke-width="1.5" stroke="#0007ad" d="M 100,58 0,0 M 0,58 100,0" />
        </pattern>

        <linearGradient id="gradient" x1="0" x2="0" y1="0" y2="1">
            <stop stop-color="hsl(0 0% 0%)" offset="0" />
            <stop stop-color="hsl(0 0% 15%)" offset="60%" />
            <stop stop-color="hsl(0 0% 30%)" offset="100%" />
        </linearGradient>

        <mask id="gradientMask">
            <rect fill="url(#gradient)" x="0" y="20%" width="100%" height="80%" />
        </mask>

        <symbol id="blobs" viewBox="0 0 1440 4000" preserveAspectRatio="xMidYMin slice">
            <path class="b" fill="#00c8c9" d="M98 6c3 9-9 26-22 43-2 0-8-1-12-7-4-7-21-8-40 0S1 49 0 32C-1 14 7-2 10 0c3 3 32 2 46 3 15 1 38-6 42 3z" />
            <path class="a" fill="#0062cd" d="M2 46C-7 34 15 10 27 0c3 0 9 1 9 9 1 9 14 11 32 6 18-4 54-8 58 6s-10 21-30 32-21-4-41 5A42 41 0 0 1 2 46Z" />
            <path class="c" fill="#b801d5" d="M119 9c17 15-8 27-14 41-7-5-22-16-32-13-13 3-29 15-49 14C4 49-4 16 2 9 7 3 21-6 15 5c-5 11 17 19 45 14 28-4 42-25 59-10Z" />
            <path class="d" fill="#008ddd" opacity="1" d="M1 38C-6 25 19 7 32 0c3 0 8 3 8 10-1 8 11 12 29 11s53 2 55 15-13 18-34 24c-21 7-20-7-40-2A43 43 0 0 1 1 38Z" />
            <path class="e" fill="#00FFD1" opacity="0.4" d="M109 32c19 2 8 22 10 34-7 0-23 0-28 7-7 9-12 24-27 33-15 8-35-10-35-17 1-7 6-19 8-9s20 4 37-13c17-16 17-36 35-35ZM85 18c1 9-11 22-24 35-2 0-7-2-9-7-3-7-16-10-33-6C2 45-1 43 1 27 2 11 11-2 14 0c2 3 26 6 37 9 12 3 33 0 34 9Z" />
        </symbol>
    </defs>


    <rect width="100%" height="100%" fill="#0007ad" />
<!--    <rect width="100%" height="100%" fill="grey" />-->
    <g filter="url(#blur)">
        <use href="#blobs" height="100%" />
    </g>

    <rect width="100%" height="100%" fill="url(#grid)" mask="url(#gradientMask)" />
</svg>
