<svg xmlns="http://www.w3.org/2000/svg">
    <defs>
        <filter id="grainFilter" x="-20%" y="-20%" width="140%" height="140%" filterUnits="objectBoundingBox" primitiveUnits="userSpaceOnUse" color-interpolation-filters="sRGB">
            <feTurbulence type="fractalNoise"
                          baseFrequency="1.35"
                          numOctaves="2"
                          seed="2"
                          stitchTiles="stitch" x="0%" y="0%" width="100%" height="100%" result="turbulence" />
            <feColorMatrix type="saturate" values="0" x="0%" y="0%" width="100%" height="100%" in="turbulence" result="colormatrix" />
            <feComponentTransfer x="0%" y="0%" width="100%" height="100%" in="colormatrix" result="componentTransfer">
                <feFuncR type="linear" slope="3" />
                <feFuncG type="linear" slope="3" />
                <feFuncB type="linear" slope="3" />
            </feComponentTransfer>
            <feColorMatrix x="0%" y="0%" width="100%" height="100%" in="componentTransfer" result="colormatrix2" type="matrix"
                           values="
                            1 0 0 0 0
                            0 1 0 0 0
                            0 0 1 0 0
                            0 0 0 20 -12" />
            <feGaussianBlur stdDeviation="0.5" result="blur" />
        </filter>

        <filter id="floodBlur" x="-300%" y="-300%" width="700%" height="700%" filterUnits="userSpaceOnUse" color-interpolation-filters="sRGB">
            <feFlood flood-opacity="0" result="BackgroundImageFix" />
            <feBlend mode="normal" in="SourceGraphic" in2="BackgroundImageFix" result="shape" />
            <feGaussianBlur stdDeviation="150" result="blur" />
        </filter>

        <pattern id="gridCell" width="100" height="58" y="5%" patternUnits="userSpaceOnUse">
            <path stroke-linecap="square" stroke-width="1.5" stroke="#0007ad" d="M 100,58 0,0 M 0,58 100,0" />
        </pattern>

        <linearGradient id="gradient" x1="0" x2="0" y1="0" y2="1">
            <stop stop-color="hsl(0 0% 0%)" offset="0" />
            <stop stop-color="hsl(0 0% 15%)" offset="60%" />
            <stop stop-color="hsl(0 0% 30%)" offset="100%" />
        </linearGradient>

        <mask id="gradientMask">
            <rect fill="url(#gradient)" x="0" y="20%" width="100%" height="80%" />
        </mask>

        <symbol id="blobs" viewBox="0 0 1440 800" preserveAspectRatio="xMidYMin slice">
            <g filter="url(#floodBlur)">
                <path fill="#008DDD" d="M34 643c-101-110 91-364 200-478 27-4 85 5 97 78 16 91 143 100 315 38 172-63 515-131 568 2s-76 216-262 345-211-20-399 89a409 409 0 0 1-519-74Z" />
                <path fill="#FF00E5" d="M1444 211c215 82 25 300 8 465-82-34-269-83-357-15-111 86-217 265-418 324-202 59-389-240-361-325s131-219 119-92c-12 128 229 121 480-31 252-152 313-408 529-326Z" />
                <path fill="#00FFD1" fill-opacity=".8" d="M1012 344c-10 92-159 195-321 293-19-7-59-35-66-98-10-78-128-148-303-150-176-2-201-25-142-180C239 53 360-63 374-30c13 32 233 131 338 193s309 90 300 181Z" />
            </g>
        </symbol>
    </defs>
    <rect width="100%" height="100%" fill="#0007ad" />
    <use width="100%" height="100%" x="0" y="0" href="#blobs" />
    <rect width="100%" height="100%" fill="url(#gridCell)" mask="url(#gradientMask)" />
    <rect width="100%" height="100%" filter="url(#grainFilter)" opacity=".4" style="mix-blend-mode: soft-light" />
</svg>
