<svg xmlns="http://www.w3.org/2000/svg" viewBox="0 0 800 800">
  <path fill="#000" d="M491 10c-50 0-94 19-129 39A629 629 0 0 0 75 542c0 91 32 156 84 185l73 42c52 32 125 29 206-18a629 629 0 0 0 287-493c0-90-30-154-81-183l-89-51c-19-11-39-14-64-14Z"/>
  <path fill="#fff" d="M551 90c-33 1-71 12-110 35a568 568 0 0 0-236 316l145 164 125-160 45 45 173-251c-10-96-65-150-142-149zm-44 100c9 0 16 7 17 20 2 17-6 39-20 48-14 8-26-1-28-21-2-17 7-37 21-44 3-2 6-3 10-3zm-110 60c9 0 16 7 17 20 2 17-6 39-20 48-14 8-26-1-28-21-2-17 7-37 21-44 3-2 6-3 10-3zm101 40a10 10 0 0 1 10 14l-38 94c-3 8-12 8-17 3l-35-45a10 10 0 1 1 15-12l25 31 31-79c2-3 5-6 9-6z"/>
</svg>
