<svg xmlns="http://www.w3.org/2000/svg" viewBox="0 0 800 800">
  <path fill="#000" d="M643 61c19 9 27 30 27 53v373c0 23-9 48-23 68L495 780c-4 7-9 9-19 4l-91-50c-5-2-4-7-8-11l-95 57c-14 9-29 10-45 0l-80-46c-18-10-27-26-27-49V312c0-34 22-81 53-99L518 19c15-8 31-8 45 0z"/>
  <path fill="#fff" d="M476 639c12-6 19 0 19 8v83l126-182c10-16 22-42 22-61V114c0-19-7-34-26-23L282 285c-22 13-42 50-42 76v373c0 20 7 34 27 23z"/>
  <path fill="#000" d="M396 457c2 19-6 43-22 53-15 9-29 0-31-23-2-19 7-42 23-49 15-8 28 0 30 19zm88-50c2 19-11 43-27 53-14 9-28 1-31-22-1-20 12-42 27-50s29 0 31 19zm83-49c0 19-6 43-22 53-15 9-29 0-31-23-2-19 8-42 23-49 15-8 30 0 30 19z"/>
</svg>
