<svg xmlns="http://www.w3.org/2000/svg" viewBox="0 0 800 800">
  <path fill="#000" d="m289 772 316-181c29-16 45-36 45-71V111c0-17-8-33-23-41l-71-43c-13-7-32-6-43 0L174 219c-21 12-24 37-24 62v413c0 11 4 24 14 30l82 48c14 8 29 8 43 0z"/>
  <path fill="#fff" d="M613 111 284 299c-5 3-10 13-10 20v419l329-187c5-3 10-13 10-20zm-52 159c14-1 24 8 24 25 0 25-20 56-45 70l-21 12c-15 42-49 85-88 107-54 31-97 13-97-40v-50l206-118c8-4 15-6 21-6zm-11 27-10 3-12 7v26l-1 17 13-8c12-7 22-21 22-33 0-8-5-13-12-12zm1 154-18 41c-3 6-10 13-15 16L343 608c-5 2-12 3-14 0l-19-20z"/>
</svg>
