<svg xmlns="http://www.w3.org/2000/svg" viewBox="0 0 800 800">
  <path fill="#000" d="M546 36 141 271c-20 12-22 34-22 58l-1 327c0 11 4 22 13 28l85 53c13 8 27 8 39 1l23-13c28 16 81 51 93 44l225-128c5-3 7-8 7-13 0-45 7-33-49-66l86-50c27-16 42-35 42-67V123c0-15-8-30-21-38l-76-49c-12-8-28-7-39 0z"/>
  <path fill="#fff" d="M651 112 252 341c-8 5-16 13-16 22v345l397-229c11-6 18-24 18-36zm0 331zm-42-238v226c0 6-5 15-10 18L295 623c-5 3-10 0-10-7V390c0-6 5-15 10-18l304-174c6-4 10 3 10 7zm-87 373-50 30c-5 3-10 9-1 17l-50 29c-10-9-15-8-21-4l-71 41 35 19 194-110z"/>
</svg>
