<svg xmlns="http://www.w3.org/2000/svg" viewBox="0 0 800 800">
  <path fill="#000" d="m392 50-150 85c-7 4-12 14-12 23l1 192 1 2-145 83c-7 4-12 14-12 22l1 193c0 2 1 4 4 5l154 93c4 2 9 3 14 0l142-82 11-10 152 92c5 2 10 3 15 0l150-94c5-3 7-9 7-15V455c0-5-2-11-8-14l-153-91h-5l1-8V156c0-6-3-11-8-14L399 51c-2-2-4-3-7-1Z"/>
  <path fill="#fff" d="m534 156-129 79c-2 1-4 5-4 8v178l129-79c2-1 4-5 4-8zM379 455l-129 79c-2 1-3 6-3 9v178l128-79c2-2 4-6 4-9V455zm320 0-129 79c-2 1-4 6-4 9v178l129-79c2-2 4-6 4-9z"/>
</svg>
