<svg xmlns="http://www.w3.org/2000/svg" viewBox="0 0 800 800">
  <path fill="#000" d="M672 187c-70-39-168-65-273-65s-202 25-272 66C54 230 9 289 9 355c0 118-7 184 118 257 152 87 394 87 545 0 73-42 117-102 119-168 5-165-20-192-119-257Z"/>
  <path fill="#fff" d="m293 544 152-97c14-10 41-12 76-10 112 7 166-133 102-156-57-21-178 48-179 95 0 14 0 36-15 44L237 531c-60-19-110-48-142-83l176-112c38-24 93 4 123-14l114-67c12-8 3-23-9-17l-105 60c-19 11-33-18-15-28l74-42c12-7 0-24-11-18l-91 52c-17 10-27-16-13-24l66-39c13-8 3-24-10-17l-90 51c-21 12-33 14-34 31 0 14-1 35-15 44L71 414C1 281 180 157 402 157c190 0 344 89 344 198 0 149-253 228-453 189z"/>
</svg>
