<svg xmlns="http://www.w3.org/2000/svg" viewBox="0 0 800 800">
  <path fill="#000" d="m285 785 324-187c30-17 46-38 46-74V102c0-17-8-34-23-43l-73-44c-13-8-33-6-44 0L168 213c-23 13-25 38-25 64v426c0 12 4 25 14 31l84 50c15 9 30 9 44 1z"/>
  <path fill="#fff" d="M635 90 295 290c-5 3-10 15-10 22v448l340-200c5-3 10-15 10-22Zm-40 148v17c0 7-5 16-12 20l-5 3v171c0 34-25 76-55 94-30 17-54 3-54-32 0-34 24-76 54-93 11-7 22-9 30-7V291l-100 57c-9 5-14 10-19 15v166c0 34-24 77-54 94s-55 3-55-31 25-77 55-94c11-6 21-9 30-7V341c0-7 5-16 11-20l162-89c9-5 12 0 12 6z"/>
</svg>
