<svg xmlns="http://www.w3.org/2000/svg" xml:space="preserve" viewBox="0 0 800 800">
  <path d="M387 57v159l-150 77c-5 3-7 7-7 12l-1 336c0 5 3 10 8 12l156 82c9 5 20-2 20-12V563l151-77c5-3 8-7 8-12V139c0-5-3-9-8-12L407 45c-9-5-20 4-20 12z" color="#000" style="-inkscape-stroke:none"/>
  <path fill="#fff" d="M396 220c-2 3-1 6 2 8l143 73a6 6 0 0 0 5-10l-143-73c-3-2-6-1-7 2zm-150 87c-2 3 0 7 2 8l144 73a6 6 0 0 0 5-10l-143-73c-3-2-7 0-8 2zm299 21-132 67v138l132-68ZM245 471c-2 2-1 6 2 7l143 74a6 6 0 0 0 5-11l-143-73c-2-1-6 0-7 3z" color="#000" style="-inkscape-stroke:none"/>
</svg>
