<svg xmlns="http://www.w3.org/2000/svg" xml:space="preserve" viewBox="0 0 800 800">
  <path d="M375 25v179l-169 87c-6 2-8 7-8 13l-1 378c0 6 4 11 9 14l176 92c10 6 22-2 22-13V595l170-88c5-2 9-7 9-13V117c0-5-4-10-9-13L397 12c-10-6-22 3-22 13z" color="#000" style="-inkscape-stroke:none"/>
  <path fill="#fff" d="M384 208c-1 4 0 7 3 9l161 83a6 6 0 0 0 6-12l-161-82c-3-2-7-1-9 2zm-168 99c-2 3 0 7 3 8l161 83a6 6 0 0 0 6-12l-161-82c-4-2-7 0-9 3zm336 22-148 77v155l148-76ZM215 490c-2 4-1 7 2 9l161 83a6 6 0 0 0 6-12l-161-82c-3-2-7-1-8 2z" color="#000" style="-inkscape-stroke:none"/>
</svg>
