<svg xmlns="http://www.w3.org/2000/svg" viewBox="0 0 800 800">
  <path fill="#000" d="M675 95 563 29C508-4 435 52 401 98c-21 23-45 69-57 99-51-37-94-37-149 1A344 344 0 0 0 75 446c0 130 102 212 127 228 81 48 160 105 231 106 31 0 59-36 98-93 102-147 178-327 192-444 8-59-7-123-48-148Z"/>
  <path fill="#fff" d="M626 120c-9-1-19 0-30 4-70 26-117 104-141 173-80-117-241 49-240 220 1 130 116 223 212 233 17 1 38-11 56-33 80-101 210-336 212-484 1-68-28-111-69-113ZM473 330c38 0 47 58 22 98-60 97-138 35-89-49 14-24 38-49 67-49zm98 198c5 8 1 19-8 23L349 676c-14 8-31-4-27-19 18-65 49-122 119-157 47-24 107-12 130 28z"/>
</svg>
